<svg width="82" height="82" viewBox="0 0 82 82" fill="none" xmlns="http://www.w3.org/2000/svg">
<g filter="url(#filter0_d_321_8575)">
<mask id="path-1-inside-1_321_8575" fill="white">
<path d="M46 1C52.5268 1 58.907 2.93542 64.3338 6.5615C69.7606 10.1876 73.9903 15.3415 76.488 21.3714C78.9857 27.4014 79.6392 34.0366 78.3659 40.438C77.0926 46.8393 73.9496 52.7194 69.3345 57.3345C64.7194 61.9496 58.8393 65.0926 52.438 66.3659C46.0366 67.6392 39.4014 66.9857 33.3714 64.488C27.3415 61.9903 22.1876 57.7606 18.5615 52.3338C14.9354 46.907 13 40.5268 13 34C13 25.2479 16.4768 16.8542 22.6655 10.6655C28.8542 4.47677 37.2479 1 46 1Z"/>
</mask>
<path d="M46 1C52.5268 1 58.907 2.93542 64.3338 6.5615C69.7606 10.1876 73.9903 15.3415 76.488 21.3714C78.9857 27.4014 79.6392 34.0366 78.3659 40.438C77.0926 46.8393 73.9496 52.7194 69.3345 57.3345C64.7194 61.9496 58.8393 65.0926 52.438 66.3659C46.0366 67.6392 39.4014 66.9857 33.3714 64.488C27.3415 61.9903 22.1876 57.7606 18.5615 52.3338C14.9354 46.907 13 40.5268 13 34C13 25.2479 16.4768 16.8542 22.6655 10.6655C28.8542 4.47677 37.2479 1 46 1Z" fill="#FC4308" fill-opacity="0.1" shape-rendering="crispEdges"/>
<path d="M13 34H12.2609H13ZM46 1.73913C52.3806 1.73913 58.6179 3.6312 63.9232 7.17607L64.7444 5.94694C59.1961 2.23963 52.673 0.26087 46 0.26087V1.73913ZM63.9232 7.17607C69.2284 10.7209 73.3634 15.7594 75.8051 21.6543L77.1709 21.0886C74.6172 14.9236 70.2928 9.65424 64.7444 5.94694L63.9232 7.17607ZM75.8051 21.6543C78.2469 27.5492 78.8858 34.0358 77.641 40.2938L79.0908 40.5822C80.3927 34.0374 79.7245 27.2536 77.1709 21.0886L75.8051 21.6543ZM77.641 40.2938C76.3962 46.5518 73.3236 52.3001 68.8119 56.8119L69.8572 57.8572C74.5757 53.1387 77.789 47.1269 79.0908 40.5822L77.641 40.2938ZM68.8119 56.8119C64.3001 61.3236 58.5518 64.3962 52.2938 65.641L52.5822 67.0908C59.1269 65.789 65.1387 62.5757 69.8572 57.8572L68.8119 56.8119ZM52.2938 65.641C46.0358 66.8858 39.5492 66.2469 33.6543 63.8051L33.0886 65.1709C39.2536 67.7245 46.0374 68.3927 52.5822 67.0908L52.2938 65.641ZM33.6543 63.8051C27.7594 61.3634 22.7209 57.2284 19.1761 51.9232L17.9469 52.7444C21.6542 58.2928 26.9236 62.6172 33.0886 65.1709L33.6543 63.8051ZM19.1761 51.9232C15.6312 46.6179 13.7391 40.3806 13.7391 34H12.2609C12.2609 40.673 14.2396 47.1961 17.9469 52.7444L19.1761 51.9232ZM13.7391 34C13.7391 25.4439 17.138 17.2382 23.1881 11.1881L22.1428 10.1428C15.8155 16.4701 12.2609 25.0518 12.2609 34H13.7391ZM23.1881 11.1881C29.2382 5.13803 37.4439 1.73913 46 1.73913V0.26087C37.0518 0.26087 28.4701 3.81552 22.1428 10.1428L23.1881 11.1881Z" fill="#FC4308" mask="url(#path-1-inside-1_321_8575)"/>
</g>
<path d="M55.4496 35.6134C56.4351 35.0444 56.4351 33.6219 55.4496 33.053L42.8844 25.7984C41.8989 25.2294 40.667 25.9407 40.667 27.0786L40.667 41.5877C40.667 42.7257 41.8989 43.4369 42.8844 42.8679L55.4496 35.6134Z" fill="#FC4308"/>
<defs>
<filter id="filter0_d_321_8575" x="0.434783" y="0.26087" width="80.7826" height="80.7826" filterUnits="userSpaceOnUse" color-interpolation-filters="sRGB">
<feFlood flood-opacity="0" result="BackgroundImageFix"/>
<feColorMatrix in="SourceAlpha" type="matrix" values="0 0 0 0 0 0 0 0 0 0 0 0 0 0 0 0 0 0 127 0" result="hardAlpha"/>
<feOffset dx="-5.17391" dy="6.65217"/>
<feGaussianBlur stdDeviation="3.69565"/>
<feComposite in2="hardAlpha" operator="out"/>
<feColorMatrix type="matrix" values="0 0 0 0 0 0 0 0 0 0 0 0 0 0 0 0 0 0 0.05 0"/>
<feBlend mode="normal" in2="BackgroundImageFix" result="effect1_dropShadow_321_8575"/>
<feBlend mode="normal" in="SourceGraphic" in2="effect1_dropShadow_321_8575" result="shape"/>
</filter>
</defs>
</svg>
