<svg width="24" height="25" viewBox="0 0 24 25" fill="none" xmlns="http://www.w3.org/2000/svg">
<path d="M16.5 6.5H13.5C12.9477 6.5 12.5 6.94772 12.5 7.5V10.5H16.5C16.6137 10.4975 16.7216 10.5504 16.7892 10.6419C16.8568 10.7334 16.8758 10.852 16.84 10.96L16.1 13.16C16.0318 13.3619 15.8431 13.4984 15.63 13.5H12.5V21C12.5 21.2761 12.2761 21.5 12 21.5H9.5C9.22386 21.5 9 21.2761 9 21V13.5H7.5C7.22386 13.5 7 13.2761 7 13V11C7 10.7239 7.22386 10.5 7.5 10.5H9V7.5C9 5.29086 10.7909 3.5 13 3.5H16.5C16.7761 3.5 17 3.72386 17 4V6C17 6.27614 16.7761 6.5 16.5 6.5Z" fill="#FC4308"/>
</svg>
