<svg width="42" height="18" viewBox="0 0 42 18" fill="none" xmlns="http://www.w3.org/2000/svg">
<path d="M18.1173 17.6716C18.0938 17.6638 18.0713 17.6529 18.0491 17.6395L12.6416 14.2789C12.6367 14.2754 12.6314 14.2722 12.6272 14.2698C12.6213 14.2673 12.6163 14.2638 12.6104 14.2606L12.6026 14.2557L6.90373 14.3127C6.79617 14.3134 6.70055 14.2638 6.63834 14.1855C6.61549 14.1789 6.59299 14.1704 6.5712 14.1588C6.5385 14.1412 6.51003 14.1193 6.48542 14.0932C6.46363 14.0865 6.44254 14.0774 6.4225 14.0665L4.45784 12.9728C4.44518 12.9668 4.43358 12.9601 4.42093 12.9527L4.41425 12.9485L0.233943 10.6224C0.201954 10.6048 0.17348 10.5819 0.149929 10.5558C-0.00192953 10.4547 -0.0458717 10.2503 0.0525593 10.096C1.03687 8.54539 2.45736 7.25294 4.16042 6.35809C5.80238 5.49522 7.70558 5.00196 9.73243 5.00196C10.6773 5.00196 11.5955 5.10872 12.4722 5.31096C12.4781 5.27291 12.4915 5.23521 12.5115 5.19997C13.3657 3.69655 14.6062 2.44118 16.0971 1.57158C17.5377 0.73126 19.2116 0.25 20.9963 0.25C22.7711 0.25 24.4366 0.72565 25.8719 1.55751C27.3567 2.41792 28.5948 3.65957 29.4532 5.15064L29.4539 5.1531C30.3535 4.93994 31.296 4.82649 32.2676 4.82649C34.2951 4.82649 36.1983 5.31976 37.8396 6.18261C39.5431 7.07755 40.9632 8.36955 41.9474 9.92051C42.0459 10.0755 42.0019 10.2799 41.8501 10.3803C41.8265 10.4064 41.798 10.4282 41.7661 10.4469L37.5858 12.773L37.5791 12.7772C37.5675 12.785 37.5548 12.7917 37.5422 12.7973L35.5775 13.891C35.5575 13.9026 35.5357 13.9111 35.5146 13.9178C35.4903 13.9438 35.4615 13.9657 35.4288 13.9833C35.3726 14.0136 35.3121 14.0263 35.2523 14.0228L29.4276 14.0816C29.4058 14.1221 29.3745 14.158 29.3362 14.1876C29.3133 14.2144 29.2866 14.238 29.2546 14.2574L25.6146 16.4909C25.6079 16.4951 25.602 16.4993 25.5953 16.5025L23.8777 17.5557C23.8601 17.5666 23.8426 17.575 23.8239 17.5824C23.7962 17.6127 23.7635 17.6381 23.7248 17.6564C23.5585 17.7382 23.3585 17.6691 23.277 17.5025C23.0653 17.0687 22.7342 16.7027 22.3261 16.4476C21.9331 16.2017 21.467 16.0597 20.9678 16.0597C20.4571 16.0597 19.9825 16.208 19.5853 16.4628C19.1737 16.7263 18.8429 17.1051 18.6355 17.5546C18.5581 17.723 18.3592 17.797 18.1904 17.7188C18.1627 17.7061 18.1374 17.6903 18.1149 17.6709L18.1173 17.6716ZM13.2719 13.8808L14.5124 14.6521C15.161 13.5954 16.0594 12.7108 17.1246 12.0811C18.2526 11.4145 19.568 11.0315 20.9706 11.0315C22.3633 11.0315 23.6685 11.4078 24.7896 12.0652C25.8512 12.6874 26.75 13.562 27.4017 14.6083L28.6868 13.8205C27.8973 12.5528 26.8048 11.4926 25.5105 10.7429C24.1757 9.9702 22.6255 9.52728 20.9709 9.52728C19.3061 9.52728 17.7475 9.97509 16.4078 10.7562C15.1262 11.5039 14.0435 12.5559 13.2589 13.8145C13.2655 13.8356 13.2705 13.8575 13.2733 13.8811L13.2719 13.8808ZM15.0812 15.0048L16.3604 15.7997C16.8131 15.0597 17.4382 14.4358 18.1795 13.9872C18.9951 13.4929 19.9502 13.2093 20.9713 13.2093V13.211C21.9615 13.205 22.8948 13.4788 23.7019 13.9611C24.4384 14.4016 25.0701 15.015 25.5447 15.7492L26.833 14.9586C26.2399 14.0097 25.4219 13.2142 24.4528 12.6469C23.4306 12.0483 22.2414 11.7058 20.9724 11.7058C19.6924 11.7058 18.4945 12.0542 17.4683 12.6606C16.4939 13.2363 15.6735 14.0439 15.0829 15.0061L15.0812 15.0048ZM16.9298 16.1537L18.2041 16.9458C18.4611 16.5233 18.8122 16.1646 19.2288 15.8976C19.7329 15.5741 20.3308 15.3867 20.9706 15.3867C21.5987 15.3867 22.1858 15.5667 22.6832 15.8775C23.0906 16.1326 23.4375 16.4751 23.697 16.8809L24.9727 16.0981C24.5544 15.4564 24.0011 14.9202 23.3575 14.5355C22.652 14.1137 21.8371 13.8745 20.972 13.8805L20.9702 13.8822C20.0749 13.8822 19.2383 14.1306 18.5243 14.5633C17.8733 14.9572 17.3249 15.5044 16.9284 16.1534L16.9298 16.1537ZM7.2775 13.6384L12.1489 13.5894C11.9338 13.3283 11.6677 13.1028 11.3629 12.9259C10.8943 12.6532 10.3347 12.495 9.73257 12.495C9.14201 12.495 8.59366 12.6465 8.13102 12.9094C7.79601 13.0997 7.50531 13.3481 7.27682 13.6384L7.2775 13.6384ZM29.8605 13.4062L34.6388 13.3583C34.4254 13.1123 34.1649 12.9013 33.8711 12.7346C33.4081 12.4721 32.8598 12.3203 32.2695 12.3203C31.6674 12.3203 31.1088 12.4785 30.6392 12.7512C30.3376 12.9263 30.0739 13.1486 29.8598 13.4069L29.8605 13.4062ZM0.806316 10.1718L2.35271 11.0322C3.10285 9.92581 4.14333 9.00093 5.37718 8.34492C6.6581 7.66455 8.14644 7.2749 9.7336 7.2749C11.0329 7.2749 12.2666 7.53668 13.3764 8.00635C14.5111 8.48623 15.5116 9.18244 16.3151 10.0362C16.8484 9.74583 17.4112 9.50344 17.9982 9.31458C17.0533 8.22517 15.8521 7.32779 14.4766 6.6964C13.053 6.04317 11.4419 5.67428 9.73351 5.67428C7.8142 5.67428 6.01683 6.13901 4.47053 6.95148C2.97724 7.73613 1.71639 8.84492 0.805236 10.1707L0.806316 10.1718ZM2.94214 11.3606L4.49168 12.2228C5.03935 11.4406 5.77332 10.7884 6.63173 10.3226C7.54882 9.82585 8.60872 9.54398 9.73432 9.54997V9.54821C10.6556 9.54821 11.5327 9.73424 12.3212 10.0675C13.0998 10.3966 13.7909 10.8698 14.3519 11.4484C14.7762 11.0562 15.2346 10.7007 15.7224 10.3875C15.0001 9.64934 14.1139 9.04651 13.117 8.62474C12.0915 8.19102 10.9449 7.94861 9.73387 7.94861C8.25749 7.94861 6.8756 8.30975 5.68962 8.94043C4.57177 9.53376 3.62759 10.3666 2.94142 11.3606L2.94214 11.3606ZM5.08147 12.5511L6.6176 13.4055C6.91745 12.9679 7.32311 12.5973 7.80259 12.3252C8.36538 12.006 9.02727 11.8217 9.73423 11.8217C10.4566 11.8217 11.1309 12.0138 11.7003 12.3446C12.1302 12.5948 12.5 12.9246 12.7848 13.3111C13.1064 12.8153 13.4717 12.3496 13.8759 11.9211C13.3754 11.4035 12.7581 10.9807 12.0617 10.6862C11.3569 10.3882 10.5684 10.2215 9.73432 10.2215L9.73256 10.2197C8.72368 10.2137 7.77213 10.4671 6.94818 10.9135C6.2033 11.3166 5.56386 11.8792 5.08124 12.5501L5.08147 12.5511ZM15.1793 6.2929C15.6303 6.52263 16.063 6.78018 16.4729 7.06417C16.9432 6.34258 17.5815 5.74006 18.3317 5.31234C19.1195 4.86346 20.0299 4.60697 20.9984 4.60697V4.60873C21.9165 4.6038 22.7848 4.83845 23.55 5.25703C24.296 5.66538 24.9428 6.24776 25.4405 6.95176C25.8504 6.66284 26.2821 6.40035 26.7349 6.16463C26.1165 5.24434 25.2845 4.48082 24.3094 3.94631C23.3276 3.40829 22.1996 3.10281 20.9984 3.10281C19.7543 3.10281 18.588 3.43118 17.5815 4.00623C16.6082 4.56257 15.7825 5.34973 15.1785 6.29257L15.1793 6.2929ZM17.0135 7.46124C17.4185 7.77763 17.7981 8.12116 18.1489 8.48652C18.4108 8.0017 18.7933 7.59158 19.2559 7.29455C19.76 6.97111 20.3579 6.78366 20.9976 6.78366C21.6258 6.78366 22.2129 6.9637 22.7102 7.27446C23.1511 7.55069 23.5216 7.93016 23.787 8.38083C24.1322 8.01475 24.5051 7.67123 24.903 7.35303C24.4629 6.7241 23.8899 6.20544 23.229 5.84429C22.5604 5.47821 21.8012 5.2728 20.999 5.27773L20.9972 5.27949C20.1466 5.27949 19.3493 5.50358 18.6614 5.89573C17.9935 6.27626 17.4268 6.81493 17.0128 7.46084L17.0135 7.46124ZM18.6252 9.01859C18.653 9.05136 18.6797 9.08519 18.7075 9.11796C19.4341 8.94461 20.1916 8.8537 20.9703 8.8537C21.7254 8.8537 22.4604 8.93967 23.1666 9.1028C23.2155 9.04044 23.265 8.97913 23.3153 8.91747C23.3118 8.91254 23.3093 8.90655 23.3068 8.90162C23.0952 8.46789 22.7641 8.10182 22.356 7.84675C21.963 7.60082 21.4969 7.45883 20.9977 7.45883C20.4869 7.45883 20.0124 7.60716 19.6152 7.86191C19.2036 8.12546 18.8728 8.50422 18.6653 8.95375C18.6544 8.97736 18.6411 8.99991 18.6249 9.01929L18.6252 9.01859ZM13.1246 5.4804C13.6217 5.62451 14.1032 5.79962 14.5676 6.00327C15.2337 4.93677 16.1568 4.04678 17.2504 3.42135C18.3566 2.78926 19.6358 2.42809 20.998 2.42809C22.3117 2.42809 23.5497 2.76493 24.6289 3.35578C25.7274 3.95757 26.6607 4.82393 27.3434 5.86797C27.807 5.66009 28.2883 5.48075 28.7847 5.33172C27.9909 4.01257 26.8713 2.91153 25.5376 2.13853C24.2029 1.36586 22.6527 0.92293 20.9981 0.92293C19.3333 0.92293 17.7747 1.37074 16.435 2.15188C15.0633 2.95168 13.9195 4.10169 13.1251 5.47901L13.1246 5.4804ZM35.3863 13.2304L36.9225 12.376C36.4395 11.7051 35.7994 11.1435 35.0555 10.7393C34.2316 10.2933 33.2807 10.0396 32.2711 10.0456L32.2694 10.0473C31.3867 10.0473 30.5536 10.2351 29.8161 10.5677C29.118 10.8827 28.5049 11.3281 28.0152 11.8686C28.4268 12.2988 28.7998 12.7677 29.1281 13.2677C29.423 12.8248 29.8262 12.4485 30.3039 12.1709C30.8734 11.8401 31.5479 11.648 32.27 11.648C32.9773 11.648 33.6399 11.8323 34.2017 12.1515C34.6811 12.4235 35.0868 12.7938 35.3866 13.2318L35.3863 13.2304ZM37.512 12.0476L39.0615 11.1855C38.3754 10.1912 37.4312 9.35859 36.3133 8.76526C35.1273 8.13458 33.7447 7.77345 32.2691 7.77345C30.9899 7.77345 29.782 8.04439 28.712 8.52604C27.726 8.96964 26.8549 9.59254 26.1519 10.3462C26.6433 10.6559 27.106 11.0079 27.5334 11.3987C28.0818 10.7983 28.7649 10.3043 29.5392 9.95478C30.3625 9.58271 31.2894 9.37378 32.2681 9.37378V9.37554C33.3937 9.36955 34.4535 9.65177 35.3707 10.1482C36.2291 10.6129 36.9631 11.2662 37.5107 12.0483L37.512 12.0476ZM39.6503 10.8581L41.1967 9.99768C40.2856 8.67186 39.0246 7.56306 37.5314 6.77843C35.985 5.96594 34.1878 5.50123 32.2684 5.50123C30.4965 5.50123 28.8291 5.8969 27.3675 6.59731C25.9952 7.25406 24.8024 8.17929 23.8734 9.29549C24.4604 9.47906 25.025 9.71654 25.5589 10.0026C26.3407 9.13201 27.3218 8.41641 28.4382 7.914C29.5948 7.39361 30.895 7.10081 32.2681 7.10081C33.8556 7.10081 35.3439 7.4905 36.6245 8.17083C37.8584 8.82653 38.8988 9.75173 39.649 10.8581L39.6503 10.8581Z" fill="#FC4308"/>
</svg>
